<svg width="185" height="65" viewBox="0 0 185 65" fill="none" xmlns="http://www.w3.org/2000/svg">
<path d="M2.9 55.455V34.775H7.08V37.755C7.41333 37.195 7.86 36.6683 8.42 36.175C8.99333 35.6817 9.69333 35.2817 10.52 34.975C11.36 34.6683 12.3267 34.515 13.42 34.515C14.7133 34.515 15.9067 34.775 17 35.295C18.1067 35.8017 18.9933 36.6017 19.66 37.695C20.3267 38.775 20.66 40.175 20.66 41.895V55.455H16.38V42.355C16.38 40.875 15.98 39.775 15.18 39.055C14.3933 38.335 13.3733 37.975 12.12 37.975C11.28 37.975 10.48 38.115 9.72 38.395C8.96 38.675 8.34667 39.1017 7.88 39.675C7.41333 40.235 7.18 40.9417 7.18 41.795V55.455H2.9ZM47.6125 55.455V34.775H51.7125V39.015C52.0592 38.0017 52.5392 37.155 53.1525 36.475C53.7792 35.7817 54.5058 35.2617 55.3325 34.915C56.1592 34.555 57.0325 34.375 57.9525 34.375C58.2325 34.375 58.4992 34.395 58.7525 34.435C59.0058 34.4617 59.2058 34.515 59.3525 34.595V38.715C59.1792 38.635 58.9525 38.5817 58.6725 38.555C58.4058 38.5283 58.1725 38.5083 57.9725 38.495C57.0658 38.4283 56.2392 38.475 55.4925 38.635C54.7458 38.795 54.0992 39.0617 53.5525 39.435C53.0192 39.8083 52.6058 40.295 52.3125 40.895C52.0325 41.495 51.8925 42.2017 51.8925 43.015V55.455H47.6125ZM69.4556 55.855C66.7356 55.855 64.5956 54.9284 63.0356 53.075C61.4756 51.2084 60.6956 48.5217 60.6956 45.015C60.6956 42.8683 61.009 41.0017 61.6356 39.415C62.2623 37.815 63.1956 36.575 64.4356 35.695C65.689 34.815 67.2356 34.375 69.0756 34.375C70.009 34.375 70.8356 34.4883 71.5556 34.715C72.289 34.9417 72.929 35.235 73.4756 35.595C74.0356 35.955 74.4956 36.3417 74.8556 36.755C75.229 37.1683 75.5156 37.555 75.7156 37.915V25.735H80.0156V55.455H76.8156L76.3356 51.215C76.189 51.6684 75.9623 52.1617 75.6556 52.695C75.349 53.2284 74.929 53.735 74.3956 54.215C73.8756 54.695 73.209 55.0884 72.3956 55.395C71.5823 55.7017 70.6023 55.855 69.4556 55.855ZM70.2756 52.635C72.1956 52.635 73.5823 52.035 74.4356 50.835C75.289 49.6217 75.7156 47.635 75.7156 44.875C75.7023 43.315 75.509 41.995 75.1356 40.915C74.7623 39.835 74.1823 39.0217 73.3956 38.475C72.6223 37.915 71.6023 37.635 70.3356 37.635C68.749 37.635 67.4556 38.2083 66.4556 39.355C65.4556 40.4883 64.9556 42.3283 64.9556 44.875C64.9556 47.3817 65.409 49.3017 66.3156 50.635C67.2356 51.9684 68.5556 52.635 70.2756 52.635ZM91.6019 55.855C90.1619 55.855 88.8085 55.6284 87.5419 55.175C86.2885 54.7217 85.2352 54.0084 84.3819 53.035C83.5419 52.0617 83.0152 50.815 82.8019 49.295H86.6219C86.7952 50.0817 87.1219 50.735 87.6019 51.255C88.0952 51.7617 88.6819 52.1417 89.3619 52.395C90.0552 52.635 90.7952 52.755 91.5819 52.755C92.8885 52.755 93.9419 52.5217 94.7419 52.055C95.5552 51.575 95.9619 50.8417 95.9619 49.855C95.9619 49.1484 95.7419 48.5817 95.3019 48.155C94.8752 47.7284 94.1952 47.415 93.2619 47.215L89.1419 46.235C87.4352 45.835 86.0685 45.2017 85.0419 44.335C84.0152 43.455 83.4952 42.2283 83.4819 40.655C83.4819 39.4417 83.7819 38.3617 84.3819 37.415C84.9952 36.4683 85.9019 35.7283 87.1019 35.195C88.3019 34.6484 89.7952 34.375 91.5819 34.375C93.9152 34.375 95.7885 34.895 97.2019 35.935C98.6152 36.975 99.3485 38.4817 99.4019 40.455H95.7019C95.5685 39.5083 95.1352 38.7683 94.4019 38.235C93.6819 37.6883 92.7285 37.415 91.5419 37.415C90.3152 37.415 89.3085 37.6617 88.5219 38.155C87.7352 38.635 87.3419 39.375 87.3419 40.375C87.3419 41.055 87.6285 41.595 88.2019 41.995C88.7752 42.3817 89.6352 42.7017 90.7819 42.955L94.7019 43.935C95.7152 44.2017 96.5485 44.555 97.2019 44.995C97.8552 45.4217 98.3685 45.895 98.7419 46.415C99.1152 46.935 99.3752 47.475 99.5219 48.035C99.6819 48.595 99.7619 49.1217 99.7619 49.615C99.7619 50.9217 99.4285 52.0417 98.7619 52.975C98.1085 53.895 97.1685 54.6084 95.9419 55.115C94.7285 55.6084 93.2819 55.855 91.6019 55.855ZM102.808 61.895V34.775H107.088L107.128 38.215C107.381 37.7617 107.708 37.315 108.108 36.875C108.508 36.4217 108.981 36.0083 109.528 35.635C110.088 35.2483 110.721 34.9417 111.428 34.715C112.148 34.4883 112.941 34.375 113.808 34.375C115.434 34.375 116.868 34.755 118.108 35.515C119.361 36.2617 120.334 37.415 121.028 38.975C121.734 40.5217 122.088 42.4884 122.088 44.875C122.088 47.275 121.734 49.2884 121.028 50.915C120.334 52.5417 119.341 53.775 118.048 54.615C116.754 55.4417 115.221 55.855 113.448 55.855C112.594 55.855 111.828 55.735 111.148 55.495C110.468 55.255 109.868 54.9417 109.348 54.555C108.828 54.155 108.381 53.7284 108.008 53.275C107.648 52.8084 107.348 52.3484 107.108 51.895V61.895H102.808ZM112.548 52.595C114.134 52.595 115.434 51.9817 116.448 50.755C117.474 49.515 117.988 47.5817 117.988 44.955C117.988 42.7017 117.514 40.9217 116.568 39.615C115.634 38.295 114.294 37.635 112.548 37.635C110.748 37.635 109.388 38.3217 108.468 39.695C107.548 41.055 107.088 42.8083 107.088 44.955C107.088 46.355 107.288 47.635 107.688 48.795C108.101 49.9417 108.714 50.8617 109.528 51.555C110.341 52.2484 111.348 52.595 112.548 52.595ZM130.441 55.855C129.107 55.855 127.921 55.615 126.881 55.135C125.854 54.655 125.047 53.9617 124.461 53.055C123.874 52.1484 123.581 51.055 123.581 49.775C123.581 47.4817 124.394 45.7683 126.021 44.635C127.647 43.5017 130.241 42.9017 133.801 42.835L137.201 42.735V41.235C137.201 40.0484 136.847 39.115 136.141 38.435C135.434 37.755 134.347 37.4217 132.881 37.435C131.774 37.435 130.787 37.6883 129.921 38.195C129.067 38.7017 128.507 39.535 128.241 40.695H124.521C124.601 39.3217 124.994 38.1683 125.701 37.235C126.421 36.2883 127.407 35.575 128.661 35.095C129.914 34.615 131.387 34.375 133.081 34.375C134.961 34.375 136.507 34.635 137.721 35.155C138.934 35.6617 139.834 36.4083 140.421 37.395C141.021 38.3817 141.321 39.5817 141.321 40.995V55.455H137.701L137.361 51.655C136.587 53.2417 135.607 54.3417 134.421 54.955C133.247 55.555 131.921 55.855 130.441 55.855ZM131.781 52.875C132.434 52.875 133.081 52.7617 133.721 52.535C134.361 52.295 134.941 51.975 135.461 51.575C135.981 51.1617 136.394 50.7017 136.701 50.195C137.021 49.6883 137.187 49.1683 137.201 48.635V45.215L134.401 45.275C132.974 45.2884 131.761 45.435 130.761 45.715C129.774 45.995 129.014 46.4284 128.481 47.015C127.961 47.6017 127.701 48.3817 127.701 49.355C127.701 50.4617 128.087 51.3284 128.861 51.955C129.634 52.5684 130.607 52.875 131.781 52.875ZM153.956 34.375C155.503 34.375 156.876 34.6817 158.076 35.295C159.289 35.895 160.269 36.735 161.016 37.815C161.763 38.895 162.216 40.155 162.376 41.595H158.676C158.556 40.915 158.296 40.2817 157.896 39.695C157.509 39.1083 156.983 38.6417 156.316 38.295C155.663 37.935 154.883 37.755 153.976 37.755C152.323 37.755 150.976 38.3617 149.936 39.575C148.896 40.7884 148.376 42.6484 148.376 45.155C148.376 47.4483 148.856 49.275 149.816 50.635C150.789 51.995 152.203 52.675 154.056 52.675C154.949 52.675 155.723 52.4884 156.376 52.115C157.043 51.7417 157.569 51.2617 157.956 50.675C158.343 50.0884 158.589 49.4817 158.696 48.855H162.336C162.189 50.2417 161.736 51.4617 160.976 52.515C160.229 53.5684 159.249 54.3884 158.036 54.975C156.836 55.5617 155.476 55.855 153.956 55.855C152.076 55.855 150.409 55.4484 148.956 54.635C147.503 53.8084 146.363 52.6017 145.536 51.015C144.723 49.415 144.316 47.475 144.316 45.195C144.316 43.0484 144.696 41.1617 145.456 39.535C146.216 37.9083 147.316 36.6417 148.756 35.735C150.209 34.8283 151.943 34.375 153.956 34.375ZM168.538 46.115C168.538 47.355 168.738 48.4684 169.138 49.455C169.552 50.4284 170.172 51.2017 170.998 51.775C171.825 52.335 172.852 52.615 174.078 52.615C175.305 52.615 176.365 52.335 177.258 51.775C178.165 51.215 178.758 50.3817 179.038 49.275H182.998C182.758 50.6884 182.192 51.8884 181.298 52.875C180.418 53.8617 179.352 54.6084 178.098 55.115C176.845 55.6084 175.532 55.855 174.158 55.855C172.198 55.855 170.472 55.435 168.978 54.595C167.485 53.7417 166.318 52.5284 165.478 50.955C164.652 49.3817 164.238 47.5083 164.238 45.335C164.238 43.1883 164.618 41.295 165.378 39.655C166.138 38.0017 167.238 36.7083 168.678 35.775C170.118 34.8417 171.852 34.375 173.878 34.375C175.878 34.375 177.558 34.8017 178.918 35.655C180.292 36.5083 181.332 37.7083 182.038 39.255C182.745 40.7883 183.098 42.6017 183.098 44.695V46.115H168.538ZM168.538 43.335H179.018C179.018 42.255 178.832 41.275 178.458 40.395C178.085 39.5017 177.512 38.8017 176.738 38.295C175.978 37.775 175.018 37.515 173.858 37.515C172.672 37.515 171.685 37.8017 170.898 38.375C170.112 38.9483 169.518 39.6817 169.118 40.575C168.732 41.4683 168.538 42.3883 168.538 43.335Z" fill="black"/>
<path fill-rule="evenodd" clip-rule="evenodd" d="M166 35.3377C158.826 30.1196 100.078 -13.4722 69.3871 4.58177C59 11.455 62.9497 24.9027 66.8628 28.8158C65.9932 20.7719 68.6316 15.5981 73.82 12.0756C97.5169 -4.01224 158.173 30.1196 166 35.3377Z" fill="black"/>
<circle cx="33.9335" cy="44.455" r="10.3484" fill="white"/>
<path fill-rule="evenodd" clip-rule="evenodd" d="M33.9335 55.455C40.0087 55.455 44.9335 50.5301 44.9335 44.455C44.9335 38.3799 40.0087 33.455 33.9335 33.455C27.8584 33.455 22.9335 38.3799 22.9335 44.455C22.9335 50.5301 27.8584 55.455 33.9335 55.455ZM33.5301 37.675C33.4288 37.8669 33.2993 38.1109 33.1712 38.3524C33.0345 38.6099 32.8994 38.8646 32.8014 39.0503C32.4231 39.7619 32.3966 39.8013 32.2626 39.8519C32.0756 39.9222 31.9834 39.8913 31.2757 39.5214C30.9588 39.3555 30.6964 39.2191 30.6936 39.2191C30.6908 39.2191 30.7075 39.3288 30.7327 39.4609C30.7693 39.6541 30.9263 40.4957 31.0819 41.3299L31.082 41.3303L31.0822 41.3311C31.229 42.1184 31.3747 42.8989 31.4167 43.1214C31.4976 43.5616 31.5074 43.6881 31.4697 43.8175C31.4251 43.968 31.2994 44.0453 31.1514 44.0144L31.1503 44.0141C31.1325 44.0104 31.1167 44.0071 31.1013 44.0025C30.9787 43.9665 30.8788 43.8535 29.986 42.844L29.9789 42.8359C29.4582 42.2467 29.0282 41.7658 29.0254 41.7686C29.0226 41.7714 28.9514 42.0175 28.8677 42.3142C28.777 42.6306 28.7016 42.8725 28.682 42.8992C28.6388 42.9653 28.5438 43.0258 28.4573 43.0441C28.4529 43.045 28.4489 43.0459 28.4452 43.0467C28.4409 43.0477 28.4369 43.0486 28.4328 43.0494C28.374 43.061 28.3103 43.0474 27.3182 42.8367C27.2411 42.8203 27.1584 42.8027 27.0697 42.7839C26.4988 42.663 26.0297 42.5659 26.027 42.5688C26.0242 42.5716 26.0563 42.7009 26.0981 42.8542C26.6677 44.9453 26.7138 45.1169 26.7319 45.2294C26.7598 45.4024 26.7124 45.5022 26.5714 45.5725C26.5407 45.588 26.3299 45.6878 26.1037 45.7947C25.8776 45.9016 25.6877 45.9916 25.6836 45.9958C25.678 46 26.5658 46.7355 27.656 47.6284C28.7462 48.5214 29.6634 49.2794 29.6941 49.3131C29.7248 49.3469 29.7667 49.4102 29.7862 49.4538C29.8183 49.5213 29.8239 49.5536 29.8239 49.6535C29.8225 49.7617 29.8127 49.8053 29.7136 50.1316C29.5433 50.6899 29.4693 50.9388 29.4721 50.9416C29.4721 50.9416 29.974 50.8846 30.6833 50.8027C31.2535 50.691 31.6459 50.5692 31.9703 50.4122C32.6477 50.087 33.0474 49.6166 33.3206 48.8252C33.496 48.3157 33.6159 47.7132 33.7647 46.5967C33.8158 46.2173 33.8513 46.0179 33.8713 46.007C33.9091 45.9831 33.958 45.9831 33.9957 46.007C34.0158 46.0179 34.0469 46.1914 34.0913 46.5208C34.2911 48.0383 34.4533 48.7321 34.7398 49.2935C35.0751 49.9525 35.5637 50.3384 36.3987 50.605C36.6337 50.6808 36.8909 50.7462 37.2131 50.809C37.8935 50.8875 38.3699 50.9416 38.3699 50.9416C38.3726 50.9388 38.2987 50.6899 38.1284 50.1316C38.0292 49.8053 38.0195 49.7617 38.0181 49.6535C38.0181 49.5536 38.0237 49.5213 38.0558 49.4538C38.0753 49.4102 38.1172 49.3469 38.1479 49.3131C38.1786 49.2794 39.0957 48.5214 40.186 47.6284C41.2762 46.7355 42.164 46 42.1584 45.9958C42.1542 45.9916 41.9644 45.9016 41.7383 45.7947C41.5121 45.6878 41.3013 45.588 41.2706 45.5725C41.1296 45.5022 41.0822 45.4024 41.1101 45.2294C41.1282 45.1169 41.1743 44.9453 41.7438 42.8542C41.7857 42.7009 41.8178 42.5716 41.815 42.5688C41.8122 42.5659 41.3432 42.663 40.7723 42.7839C40.6835 42.8028 40.6008 42.8203 40.5237 42.8367C39.5317 43.0474 39.468 43.061 39.4092 43.0494C39.4051 43.0486 39.4011 43.0477 39.3968 43.0467C39.3931 43.0459 39.3891 43.045 39.3847 43.0441C39.2981 43.0258 39.2032 42.9653 39.16 42.8992C39.1404 42.8725 39.065 42.6306 38.9743 42.3142C38.8905 42.0175 38.8193 41.7714 38.8166 41.7686C38.8138 41.7658 38.3838 42.2467 37.8631 42.8359L37.856 42.844C36.9632 43.8535 36.8633 43.9665 36.7407 44.0025C36.7253 44.0071 36.7095 44.0104 36.6917 44.0141L36.6905 44.0144C36.5914 44.0355 36.5133 44.013 36.4462 43.9455C36.3443 43.8428 36.3262 43.6727 36.3834 43.352C36.4113 43.2002 36.9153 40.4931 37.1079 39.468C37.133 39.3316 37.1512 39.2191 37.1484 39.2191C37.1456 39.2191 36.8832 39.3555 36.5663 39.5214C35.9367 39.8505 35.8418 39.8884 35.6869 39.8772C35.5863 39.8688 35.511 39.8322 35.4398 39.7577C35.3951 39.7127 34.8856 38.7649 33.9908 37.0703C33.9573 37.007 33.9252 36.955 33.921 36.955C33.9168 36.955 33.7409 37.2799 33.5301 37.675Z" fill="#D01414"/>
</svg>
